<?xml version="1.0" encoding="utf-8"?>
<!-- Generator: Adobe Illustrator 17.0.0, SVG Export Plug-In . SVG Version: 6.00 Build 0)  -->
<!DOCTYPE svg PUBLIC "-//W3C//DTD SVG 1.1//EN" "http://www.w3.org/Graphics/SVG/1.1/DTD/svg11.dtd">
<svg version="1.1" xmlns="http://www.w3.org/2000/svg" xmlns:xlink="http://www.w3.org/1999/xlink" x="0px" y="0px" width="64px"
	 height="64px" viewBox="0 0 64 64" enable-background="new 0 0 64 64" xml:space="preserve">
<g id="bg" display="none">
	<rect display="inline" width="64" height="64"/>
</g>
<g id="icon">
	<path fill="#FFFFFF" d="M28.64,21.031h4.692v4.438h2.98v3.741h-3.17v6.15c0,0-0.634,2.409,3.17,0.571l1.078,3.614
		c0,0-1.458,1.205-4.375,1.205s-4.375-1.585-4.375-3.36c0-1.775,0-8.115,0-8.115h-1.965v-3.867h1.965V21.031z"/>
	<path fill="#FFFFFF" d="M32,9.471c-11.812,0-21.387,9.575-21.387,21.387S20.188,52.245,32,52.245s21.387-9.575,21.387-21.387
		S43.812,9.471,32,9.471z M31.891,50.385c-10.831,0-19.612-8.78-19.612-19.612c0-10.831,8.78-19.612,19.612-19.612
		c10.831,0,19.612,8.78,19.612,19.612C51.503,41.605,42.722,50.385,31.891,50.385z"/>
	<path fill="#FFFFFF" d="M32.032,5.329c-14.053,0-25.445,11.392-25.445,25.444c0,14.053,11.392,25.445,25.445,25.445
		s25.445-11.392,25.445-25.445C57.476,16.721,46.084,5.329,32.032,5.329z M32.032,55.457c-13.632,0-24.684-11.051-24.684-24.684
		c0-13.632,11.051-24.684,24.684-24.684s24.684,11.051,24.684,24.684C56.715,44.406,45.664,55.457,32.032,55.457z"/>
	<path fill="#FFFFFF" d="M32,1.44c-16.2,0-29.333,13.133-29.333,29.333c0,16.2,13.133,29.333,29.333,29.333
		s29.333-13.133,29.333-29.333C61.333,14.573,48.2,1.44,32,1.44z M32,59.663c-15.955,0-28.889-12.934-28.889-28.889
		S16.045,1.884,32,1.884s28.889,12.934,28.889,28.889S47.955,59.663,32,59.663z"/>
</g>
</svg>
